<svg width="106" height="17" viewBox="0 0 106 17" fill="none" xmlns="http://www.w3.org/2000/svg">
<g clip-path="url(#clip0)">
<path fill-rule="evenodd" clip-rule="evenodd" d="M13.6353 0.0589294H6.0582L5.43445 3.55813L12.2676 3.56666C15.6291 3.56666 16.6258 4.78933 16.6004 6.81306C16.5836 7.85013 16.1359 9.60399 15.9417 10.1691C15.4264 11.6869 14.3536 13.4155 10.3587 13.4069H3.71014L3.08506 16.9147H10.6448C13.3137 16.9147 14.4455 16.6027 15.6449 16.0547C18.3055 14.832 19.8922 12.2096 20.5267 8.78613C21.4726 3.6848 20.29 0.0589294 13.6353 0.0589294ZM37.0566 16.9232L37.5887 13.8792H44.0583C44.289 13.8912 44.5155 13.8136 44.6903 13.6627C44.865 13.5118 44.9746 13.2993 44.9959 13.0696C45.0971 12.5629 44.8439 12.2603 44.3372 12.2603H41.2449C38.8041 12.2603 37.6386 10.8352 38.0693 8.40666C38.4999 5.97813 40.1796 4.55306 42.6217 4.55306H49.649L49.0915 7.59839H42.9005C42.6698 7.58632 42.4434 7.66383 42.2686 7.81469C42.0938 7.96555 41.9843 8.17806 41.9629 8.40773C41.8614 8.9144 42.1149 9.21733 42.6217 9.21733H45.7046C48.1456 9.21733 49.3108 10.6424 48.8802 13.0707C48.4496 15.4989 46.8025 16.9243 44.3615 16.9243H37.0558L37.0566 16.9232ZM27.1995 16.9232C23.1793 16.9232 21.3801 14.7392 22.0896 10.7339C22.7738 6.72026 25.3668 4.5448 29.3871 4.5448H36.5071L34.3196 16.9232H27.199H27.1995ZM31.8267 7.58026H29.994C27.8062 7.58026 26.5141 8.5416 26.134 10.7269C25.7285 12.9109 26.5395 13.872 28.727 13.872H30.7286L31.8267 7.58026ZM58.4658 16.9232L59.7414 9.7136C59.9692 8.28853 59.3941 7.6816 57.9677 7.6816H55.9404L54.3109 16.9232H50.1891L53.1703 0.0589294H57.2921L56.4982 4.53626H59.5814C63.1876 4.53626 64.4885 6.11306 63.8554 9.7136L62.5884 16.9232H58.4666H58.4658ZM2.78988 6.7288C0.80512 6.7288 0.517687 8.01893 0.332299 8.80293C0.0873427 9.8232 0.00292969 10.2365 0.00292969 10.2365H7.7558C9.74083 10.2365 10.028 8.9464 10.2134 8.16213C10.4583 7.14186 10.5427 6.7288 10.5427 6.7288H2.78988Z" fill="#252B3A"/>
<path fill-rule="evenodd" clip-rule="evenodd" d="M79.452 14.345C78.1672 15.3597 76.5711 15.9009 74.933 15.8773C73.7624 15.9102 72.6118 15.5706 71.6473 14.9077C70.7299 14.2518 70.046 13.3208 69.6951 12.2501C69.2983 11.0412 69.2218 9.75034 69.4731 8.50318C69.7044 7.14862 70.2306 5.8612 71.0145 4.73171C71.7613 3.63929 72.7508 2.73388 73.9059 2.08612C75.0148 1.45717 76.2687 1.12706 77.5441 1.12825C78.3972 1.11177 79.2446 1.27071 80.0335 1.59518C80.7738 1.92266 81.4084 2.44887 81.8668 3.11518L82.6949 2.30105C82.1778 1.55498 81.4673 0.963222 80.6394 0.589049C79.7216 0.18374 78.7262 -0.0164883 77.7229 0.0023794C76.2447 -0.00179312 74.7909 0.377733 73.5041 1.10371C72.1739 1.84866 71.0329 2.88875 70.1693 4.14372C69.2599 5.44731 68.6502 6.93526 68.3835 8.50131C68.088 9.95042 68.1714 11.4511 68.6258 12.8586C69.027 14.0902 69.8196 15.1574 70.8833 15.8986C72.0066 16.6524 73.3377 17.0375 74.6907 17C75.7338 17.0004 76.7685 16.8147 77.7461 16.4517C78.7293 16.0932 79.6339 15.5484 80.4102 14.8474L81.5214 8.57465H80.4753L79.452 14.345ZM87.546 16.9786C88.5987 16.9787 89.6323 16.6977 90.5397 16.1648C91.5017 15.6038 92.3217 14.8297 92.9364 13.9021C93.5986 12.9176 94.0433 11.8035 94.2407 10.6341C94.462 9.54924 94.4116 8.42663 94.0941 7.36585C93.8225 6.4588 93.2625 5.66466 92.4988 5.10345C91.7084 4.54839 90.7596 4.26285 89.7936 4.28931C88.7407 4.28923 87.707 4.57033 86.7996 5.10345C85.8375 5.66401 85.0175 6.43813 84.4032 7.36585C83.7406 8.35032 83.2958 9.46451 83.0985 10.6341C82.877 11.7189 82.9275 12.8415 83.2455 13.9021C83.5165 14.8094 84.0765 15.6038 84.8405 16.1648C85.631 16.7198 86.5799 17.0052 87.546 16.9786ZM87.7367 15.9013C86.957 15.9245 86.1916 15.6887 85.5607 15.2309C84.9476 14.7609 84.5024 14.1064 84.2907 13.3642C84.0365 12.4761 84.0009 11.5397 84.1871 10.6349C84.3494 9.6605 84.714 8.73073 85.2575 7.90531C85.7514 7.14502 86.4121 6.50673 87.1894 6.03865C87.9173 5.59931 88.7519 5.36745 89.6026 5.36825C90.3822 5.3453 91.1475 5.58107 91.7786 6.03865C92.3913 6.50905 92.8364 7.16338 93.0485 7.90531C93.3026 8.79359 93.3382 9.72998 93.1522 10.6349C92.9899 11.6092 92.6253 12.5389 92.0818 13.3642C91.5879 14.1245 90.9274 14.7628 90.1502 15.2309C89.4222 15.6703 88.5874 15.9021 87.7367 15.9013ZM104.91 4.38505L98.4475 15.5661L95.988 4.38505H94.8567L97.6592 16.8829H98.7477L105.999 4.38505H104.91Z" fill="#252B3A"/>
</g>
<defs>
<clipPath id="clip0">
<rect width="106" height="17" fill="white"/>
</clipPath>
</defs>
</svg>

